<svg width="18" height="18" viewBox="0 0 18 18" fill="none" xmlns="http://www.w3.org/2000/svg">
<path d="M9.00008 17.3333C4.39758 17.3333 0.666748 13.6025 0.666748 8.99996C0.666748 4.39746 4.39758 0.666626 9.00008 0.666626C13.6026 0.666626 17.3334 4.39746 17.3334 8.99996C17.3334 13.6025 13.6026 17.3333 9.00008 17.3333ZM9.00008 15.6666C10.7682 15.6666 12.4639 14.9642 13.7141 13.714C14.9644 12.4638 15.6667 10.7681 15.6667 8.99996C15.6667 7.23185 14.9644 5.53616 13.7141 4.28591C12.4639 3.03567 10.7682 2.33329 9.00008 2.33329C7.23197 2.33329 5.53628 3.03567 4.28604 4.28591C3.03579 5.53616 2.33341 7.23185 2.33341 8.99996C2.33341 10.7681 3.03579 12.4638 4.28604 13.714C5.53628 14.9642 7.23197 15.6666 9.00008 15.6666ZM8.16675 11.5H9.83342V13.1666H8.16675V11.5ZM9.83342 10.1291V10.6666H8.16675V9.41663C8.16675 9.19561 8.25455 8.98365 8.41083 8.82737C8.56711 8.67109 8.77907 8.58329 9.00008 8.58329C9.23681 8.58328 9.46867 8.51604 9.66869 8.3894C9.8687 8.26276 10.0286 8.08193 10.1299 7.86795C10.2311 7.65396 10.2696 7.41562 10.2407 7.18066C10.2117 6.9457 10.1167 6.72378 9.96661 6.54072C9.81651 6.35766 9.61751 6.22098 9.39277 6.1466C9.16802 6.07222 8.92678 6.06318 8.6971 6.12055C8.46743 6.17791 8.25876 6.29932 8.09539 6.47064C7.93201 6.64196 7.82065 6.85615 7.77425 7.08829L6.13925 6.76079C6.24061 6.2542 6.47467 5.7836 6.81752 5.39711C7.16036 5.01063 7.59968 4.72211 8.09057 4.56106C8.58147 4.40001 9.10632 4.3722 9.61148 4.48047C10.1166 4.58875 10.584 4.82922 10.9658 5.17731C11.3475 5.52541 11.63 5.96863 11.7843 6.46168C11.9387 6.95473 11.9593 7.47991 11.8441 7.98355C11.729 8.48719 11.4821 8.95121 11.1288 9.32818C10.7756 9.70515 10.3285 9.98155 9.83342 10.1291Z" fill="black" fill-opacity="0.4"/>
</svg>
